<?xml version="1.0" standalone="no"?><svg xmlns="http://www.w3.org/2000/svg" viewBox="0 0 1440 320"><path fill="#000" fill-opacity="1" d="M0,224L26.7,208C53.3,192,107,160,160,160C213.3,160,267,192,320,192C373.3,192,427,160,480,128C533.3,96,587,64,640,58.7C693.3,53,747,75,800,117.3C853.3,160,907,224,960,240C1013.3,256,1067,224,1120,208C1173.3,192,1227,192,1280,181.3C1333.3,171,1387,149,1413,138.7L1440,128L1440,320L1413.3,320C1386.7,320,1333,320,1280,320C1226.7,320,1173,320,1120,320C1066.7,320,1013,320,960,320C906.7,320,853,320,800,320C746.7,320,693,320,640,320C586.7,320,533,320,480,320C426.7,320,373,320,320,320C266.7,320,213,320,160,320C106.7,320,53,320,27,320L0,320Z"></path></svg>